# xmcd
#
# Track frame offsets:
#	150
#	20992
#	36940
#	57608
#	66185
#	82306
#	100705
#	124324
#	143687
#	166841
#	181956
#
# Disc length: 2674 seconds
# Revision: 1
# Processed by: cddbd v1.5.2PL0 Copyright (c) Steve Scherf et al.
# Submitted via: dBpowerAMP V12.0
#
DISCID=a00a700b
DTITLE=The Little Elmore Reed Blues Band - The Little Elmore Reed Blues Band
DYEAR=2012
DGENRE=Blues
TTITLE0=The G.P. Blues
TTITLE1=My Love Is Here To Stay
TTITLE2=I Can Tell
TTITLE3=Young Girl
TTITLE4=It's Wrong
TTITLE5=Schoolgirl
TTITLE6=Country Boy
TTITLE7=Tick Tock
TTITLE8=You're The One
TTITLE9=Hey Little Girl
TTITLE10=Kissin' At MIdnight
EXTD=
EXTT0=
EXTT1=
EXTT2=
EXTT3=
EXTT4=
EXTT5=
EXTT6=
EXTT7=
EXTT8=
EXTT9=
EXTT10=
PLAYORDER=
